<?xml version="1.0" encoding="UTF-8" standalone="no"?><!DOCTYPE svg PUBLIC "-//W3C//DTD SVG 1.1//EN" "http://www.w3.org/Graphics/SVG/1.1/DTD/svg11.dtd"><!-- Generated by graphviz version 2.40.1 (20161225.0304)
 --><!-- Title: vCloudTopology Pages: 1 --><svg xmlns="http://www.w3.org/2000/svg" xmlns:xlink="http://www.w3.org/1999/xlink" width="2900pt" height="454pt" viewBox="0.00 0.00 2899.76 454.00">
<g id="graph0" class="graph" transform="scale(1 1) rotate(0) translate(4 450)">
<title>vCloudTopology</title>
<polygon fill="#ffffff" stroke="transparent" points="-4,4 -4,-450 2895.7585,-450 2895.7585,4 -4,4"/>
<!-- testorg -->
<g id="node1" class="node">
<title>testorg</title>
<polygon fill="#add8e6" stroke="#add8e6" points="1408.673,-446 1274.5228,-446 1274.5228,-410 1408.673,-410 1408.673,-446"/>
<text text-anchor="middle" x="1341.5979" y="-423.8" font-family="Times,serif" font-size="14.00" fill="#000000">Organization: testorg</text>
</g>
<!-- com&#45;a&#45;testorg&#45;03 -->
<g id="node2" class="node">
<title>com-a-testorg-03</title>
<polygon fill="#add8e6" stroke="#add8e6" points="698.4413,-373 548.7545,-373 548.7545,-337 698.4413,-337 698.4413,-373"/>
<text text-anchor="middle" x="623.5979" y="-350.8" font-family="Times,serif" font-size="14.00" fill="#000000">VDC: com-a-testorg-03</text>
</g>
<!-- testorg&#45;&gt;com&#45;a&#45;testorg&#45;03 -->
<g id="edge1" class="edge">
<title>testorg-&gt;com-a-testorg-03</title>
<path fill="none" stroke="#000000" d="M1274.3729,-421.1651C1143.132,-407.8217 853.0539,-378.3291 708.6733,-363.6497"/>
<polygon fill="#000000" stroke="#000000" points="708.8367,-360.1484 698.5339,-362.6188 708.1285,-367.1125 708.8367,-360.1484"/>
</g>
<!-- com&#45;a&#45;testorg&#45;04 -->
<g id="node12" class="node">
<title>com-a-testorg-04</title>
<polygon fill="#add8e6" stroke="#add8e6" points="1369.4413,-373 1219.7545,-373 1219.7545,-337 1369.4413,-337 1369.4413,-373"/>
<text text-anchor="middle" x="1294.5979" y="-350.8" font-family="Times,serif" font-size="14.00" fill="#000000">VDC: com-a-testorg-04</text>
</g>
<!-- testorg&#45;&gt;com&#45;a&#45;testorg&#45;04 -->
<g id="edge11" class="edge">
<title>testorg-&gt;com-a-testorg-04</title>
<path fill="none" stroke="#000000" d="M1329.9799,-409.9551C1324.5003,-401.4441 1317.851,-391.1165 1311.8024,-381.7219"/>
<polygon fill="#000000" stroke="#000000" points="1314.6014,-379.6037 1306.2451,-373.0904 1308.7157,-383.3931 1314.6014,-379.6037"/>
</g>
<!-- bas&#45;b&#45;testorg&#45;01 -->
<g id="node16" class="node">
<title>bas-b-testorg-01</title>
<polygon fill="#add8e6" stroke="#add8e6" points="1742.7806,-373 1598.4152,-373 1598.4152,-337 1742.7806,-337 1742.7806,-373"/>
<text text-anchor="middle" x="1670.5979" y="-350.8" font-family="Times,serif" font-size="14.00" fill="#000000">VDC: bas-b-testorg-01</text>
</g>
<!-- testorg&#45;&gt;bas&#45;b&#45;testorg&#45;01 -->
<g id="edge15" class="edge">
<title>testorg-&gt;bas-b-testorg-01</title>
<path fill="none" stroke="#000000" d="M1408.7016,-413.1263C1456.2603,-402.5828 1521.8584,-388.0364 1588.3587,-373.2747"/>
<polygon fill="#000000" stroke="#000000" points="1589.171,-376.6797 1598.1748,-371.0956 1587.6539,-369.846 1589.171,-376.6797"/>
</g>
<!-- com&#45;a&#45;testorg&#45;02 -->
<g id="node17" class="node">
<title>com-a-testorg-02</title>
<polygon fill="#add8e6" stroke="#add8e6" points="1580.4413,-373 1430.7545,-373 1430.7545,-337 1580.4413,-337 1580.4413,-373"/>
<text text-anchor="middle" x="1505.5979" y="-350.8" font-family="Times,serif" font-size="14.00" fill="#000000">VDC: com-a-testorg-02</text>
</g>
<!-- testorg&#45;&gt;com&#45;a&#45;testorg&#45;02 -->
<g id="edge16" class="edge">
<title>testorg-&gt;com-a-testorg-02</title>
<path fill="none" stroke="#000000" d="M1382.1372,-409.9551C1404.4116,-400.0403 1432.2247,-387.66 1455.8104,-377.1615"/>
<polygon fill="#000000" stroke="#000000" points="1457.244,-380.3545 1464.9565,-373.0904 1454.3974,-373.9594 1457.244,-380.3545"/>
</g>
<!-- JN_silo1 -->
<g id="node3" class="node">
<title>JN_silo1</title>
<polygon fill="#add8e6" stroke="#add8e6" points="541.8725,-300 437.3233,-300 437.3233,-264 541.8725,-264 541.8725,-300"/>
<text text-anchor="middle" x="489.5979" y="-277.8" font-family="Times,serif" font-size="14.00" fill="#000000">vApp: JN_silo1</text>
</g>
<!-- com&#45;a&#45;testorg&#45;03&#45;&gt;JN_silo1 -->
<g id="edge2" class="edge">
<title>com-a-testorg-03-&gt;JN_silo1</title>
<path fill="none" stroke="#000000" d="M590.4743,-336.9551C572.7577,-327.3035 550.7526,-315.3156 531.82,-305.0016"/>
<polygon fill="#000000" stroke="#000000" points="533.2607,-301.8008 522.8049,-300.0904 529.9119,-307.9479 533.2607,-301.8008"/>
</g>
<!-- jblodi_test&#45;3494b5b0&#45;8958&#45;4b87&#45;b532&#45;1e9b2794f82a (1) (1)&#45;v2t -->
<g id="node6" class="node">
<title>jblodi_test-3494b5b0-8958-4b87-b532-1e9b2794f82a (1) (1)-v2t</title>
<polygon fill="#add8e6" stroke="#add8e6" points="419.2937,-300 -.0979,-300 -.0979,-264 419.2937,-264 419.2937,-300"/>
<text text-anchor="middle" x="209.5979" y="-277.8" font-family="Times,serif" font-size="14.00" fill="#000000">vApp: jblodi_test-3494b5b0-8958-4b87-b532-1e9b2794f82a (1) (1)-v2t</text>
</g>
<!-- com&#45;a&#45;testorg&#45;03&#45;&gt;jblodi_test&#45;3494b5b0&#45;8958&#45;4b87&#45;b532&#45;1e9b2794f82a (1) (1)&#45;v2t -->
<g id="edge5" class="edge">
<title>com-a-testorg-03-&gt;jblodi_test-3494b5b0-8958-4b87-b532-1e9b2794f82a (1) (1)-v2t</title>
<path fill="none" stroke="#000000" d="M548.6256,-341.7803C485.4223,-330.6357 394.0352,-314.5215 322.0645,-301.8311"/>
<polygon fill="#000000" stroke="#000000" points="322.4989,-298.3537 312.043,-300.064 321.2833,-305.2474 322.4989,-298.3537"/>
</g>
<!-- JN_silo1&#45;v2t -->
<g id="node7" class="node">
<title>JN_silo1-v2t</title>
<polygon fill="#add8e6" stroke="#add8e6" points="686.9234,-300 560.2724,-300 560.2724,-264 686.9234,-264 686.9234,-300"/>
<text text-anchor="middle" x="623.5979" y="-277.8" font-family="Times,serif" font-size="14.00" fill="#000000">vApp: JN_silo1-v2t</text>
</g>
<!-- com&#45;a&#45;testorg&#45;03&#45;&gt;JN_silo1&#45;v2t -->
<g id="edge6" class="edge">
<title>com-a-testorg-03-&gt;JN_silo1-v2t</title>
<path fill="none" stroke="#000000" d="M623.5979,-336.9551C623.5979,-328.8828 623.5979,-319.1764 623.5979,-310.1817"/>
<polygon fill="#000000" stroke="#000000" points="627.098,-310.0903 623.5979,-300.0904 620.098,-310.0904 627.098,-310.0903"/>
</g>
<!-- jblodi_test&#45;3494b5b0&#45;8958&#45;4b87&#45;b532&#45;1e9b2794f82a (1) (1) -->
<g id="node8" class="node">
<title>jblodi_test-3494b5b0-8958-4b87-b532-1e9b2794f82a (1) (1)</title>
<polygon fill="#add8e6" stroke="#add8e6" points="1101.7427,-300 705.4531,-300 705.4531,-264 1101.7427,-264 1101.7427,-300"/>
<text text-anchor="middle" x="903.5979" y="-277.8" font-family="Times,serif" font-size="14.00" fill="#000000">vApp: jblodi_test-3494b5b0-8958-4b87-b532-1e9b2794f82a (1) (1)</text>
</g>
<!-- com&#45;a&#45;testorg&#45;03&#45;&gt;jblodi_test&#45;3494b5b0&#45;8958&#45;4b87&#45;b532&#45;1e9b2794f82a (1) (1) -->
<g id="edge7" class="edge">
<title>com-a-testorg-03-&gt;jblodi_test-3494b5b0-8958-4b87-b532-1e9b2794f82a (1) (1)</title>
<path fill="none" stroke="#000000" d="M692.8114,-336.9551C732.6917,-326.5577 782.9715,-313.449 824.4214,-302.6424"/>
<polygon fill="#000000" stroke="#000000" points="825.4167,-306 834.2102,-300.0904 823.6507,-299.2265 825.4167,-306"/>
</g>
<!-- JN_latency_do_not_delete -->
<g id="node4" class="node">
<title>JN_latency_do_not_delete</title>
<polygon fill="#add8e6" stroke="#add8e6" points="587.3316,-169.8014 391.8642,-169.8014 391.8642,-110.9986 587.3316,-110.9986 587.3316,-169.8014"/>
<text text-anchor="middle" x="489.5979" y="-153" font-family="Times,serif" font-size="14.00" fill="#000000">VM: JN_latency_do_not_delete</text>
<text text-anchor="middle" x="489.5979" y="-136.2" font-family="Times,serif" font-size="14.00" fill="#000000">RAM: 8192 MB</text>
<text text-anchor="middle" x="489.5979" y="-119.4" font-family="Times,serif" font-size="14.00" fill="#000000">CPU: 4</text>
</g>
<!-- JN_silo1&#45;&gt;JN_latency_do_not_delete -->
<g id="edge3" class="edge">
<title>JN_silo1-&gt;JN_latency_do_not_delete</title>
<path fill="none" stroke="#000000" d="M489.5979,-263.7782C489.5979,-242.6497 489.5979,-207.2093 489.5979,-179.7195"/>
<polygon fill="#000000" stroke="#000000" points="493.098,-179.6195 489.5979,-169.6195 486.098,-179.6196 493.098,-179.6195"/>
</g>
<!-- test&#45;shared&#45;network -->
<g id="node5" class="node">
<title>test-shared-network</title>
<polygon fill="#add8e6" stroke="#add8e6" points="581.1365,-41.4019 398.0593,-41.4019 398.0593,-.1981 581.1365,-.1981 581.1365,-41.4019"/>
<text text-anchor="middle" x="489.5979" y="-25" font-family="Times,serif" font-size="14.00" fill="#000000">Network: test-shared-network</text>
<text text-anchor="middle" x="489.5979" y="-8.2" font-family="Times,serif" font-size="14.00" fill="#000000">Edge Gateway: neni</text>
</g>
<!-- JN_latency_do_not_delete&#45;&gt;test&#45;shared&#45;network -->
<g id="edge4" class="edge">
<title>JN_latency_do_not_delete-&gt;test-shared-network</title>
<path fill="none" stroke="#000000" d="M489.5979,-111.1425C489.5979,-93.106 489.5979,-70.0023 489.5979,-51.6741"/>
<polygon fill="#000000" stroke="#000000" points="493.098,-51.5089 489.5979,-41.509 486.098,-51.509 493.098,-51.5089"/>
<text text-anchor="middle" x="560.5709" y="-80.6" font-family="Times,serif" font-size="14.00" fill="#000000">IP: 1.2.3.6</text>
<text text-anchor="middle" x="560.5709" y="-63.8" font-family="Times,serif" font-size="14.00" fill="#000000">MAC: 00:50:56:3c:45:80</text>
</g>
<!-- jblodi_test -->
<g id="node9" class="node">
<title>jblodi_test</title>
<polygon fill="#add8e6" stroke="#add8e6" points="957.6584,-169.8014 849.5374,-169.8014 849.5374,-110.9986 957.6584,-110.9986 957.6584,-169.8014"/>
<text text-anchor="middle" x="903.5979" y="-153" font-family="Times,serif" font-size="14.00" fill="#000000">VM: jblodi_test</text>
<text text-anchor="middle" x="903.5979" y="-136.2" font-family="Times,serif" font-size="14.00" fill="#000000">RAM: 6144 MB</text>
<text text-anchor="middle" x="903.5979" y="-119.4" font-family="Times,serif" font-size="14.00" fill="#000000">CPU: 2</text>
</g>
<!-- jblodi_test&#45;3494b5b0&#45;8958&#45;4b87&#45;b532&#45;1e9b2794f82a (1) (1)&#45;&gt;jblodi_test -->
<g id="edge8" class="edge">
<title>jblodi_test-3494b5b0-8958-4b87-b532-1e9b2794f82a (1) (1)-&gt;jblodi_test</title>
<path fill="none" stroke="#000000" d="M903.5979,-263.7782C903.5979,-242.6497 903.5979,-207.2093 903.5979,-179.7195"/>
<polygon fill="#000000" stroke="#000000" points="907.098,-179.6195 903.5979,-169.6195 900.098,-179.6196 907.098,-179.6195"/>
</g>
<!-- routed_network -->
<g id="node10" class="node">
<title>routed_network</title>
<polygon fill="#add8e6" stroke="#add8e6" points="1185.8338,-41.4019 943.362,-41.4019 943.362,-.1981 1185.8338,-.1981 1185.8338,-41.4019"/>
<text text-anchor="middle" x="1064.5979" y="-25" font-family="Times,serif" font-size="14.00" fill="#000000">Network: routed_network</text>
<text text-anchor="middle" x="1064.5979" y="-8.2" font-family="Times,serif" font-size="14.00" fill="#000000">Edge Gateway: com-a-testorg-02-gw-01</text>
</g>
<!-- jblodi_test&#45;&gt;routed_network -->
<g id="edge9" class="edge">
<title>jblodi_test-&gt;routed_network</title>
<path fill="none" stroke="#000000" d="M922.3688,-110.8669C936.6272,-88.589 954.197,-61.5346 956.6519,-59.6 963.2847,-54.3729 970.6821,-49.8128 978.4088,-45.8422"/>
<polygon fill="#000000" stroke="#000000" points="980.0912,-48.9174 987.6044,-41.4473 977.0726,-42.6017 980.0912,-48.9174"/>
<text text-anchor="middle" x="1028.5709" y="-80.6" font-family="Times,serif" font-size="14.00" fill="#000000">IP: 169.254.37.40</text>
<text text-anchor="middle" x="1028.5709" y="-63.8" font-family="Times,serif" font-size="14.00" fill="#000000">MAC: 00:50:56:06:a5:b4</text>
</g>
<!-- jblodi_test_hnk -->
<g id="node11" class="node">
<title>jblodi_test_hnk</title>
<polygon fill="#add8e6" stroke="#add8e6" points="869.5804,-41.4019 709.6154,-41.4019 709.6154,-.1981 869.5804,-.1981 869.5804,-41.4019"/>
<text text-anchor="middle" x="789.5979" y="-25" font-family="Times,serif" font-size="14.00" fill="#000000">Network: jblodi_test_hnk</text>
<text text-anchor="middle" x="789.5979" y="-8.2" font-family="Times,serif" font-size="14.00" fill="#000000">Edge Gateway: neni</text>
</g>
<!-- jblodi_test&#45;&gt;jblodi_test_hnk -->
<g id="edge10" class="edge">
<title>jblodi_test-&gt;jblodi_test_hnk</title>
<path fill="none" stroke="#000000" d="M849.3789,-131.0672C827.4487,-124.3608 804.204,-112.868 790.8665,-93.2 782.7701,-81.2607 781.6771,-65.4781 782.9358,-51.6965"/>
<polygon fill="#000000" stroke="#000000" points="786.4236,-52.0202 784.2797,-41.6445 779.4853,-51.0925 786.4236,-52.0202"/>
<text text-anchor="middle" x="862.9636" y="-80.6" font-family="Times,serif" font-size="14.00" fill="#000000">IP: 192.166.10.150</text>
<text text-anchor="middle" x="862.9636" y="-63.8" font-family="Times,serif" font-size="14.00" fill="#000000">MAC: 00:50:56:06:89:60</text>
</g>
<!-- pujvary_benchmar_aloc -->
<g id="node13" class="node">
<title>pujvary_benchmar_aloc</title>
<polygon fill="#add8e6" stroke="#add8e6" points="1309.3758,-300 1119.82,-300 1119.82,-264 1309.3758,-264 1309.3758,-300"/>
<text text-anchor="middle" x="1214.5979" y="-277.8" font-family="Times,serif" font-size="14.00" fill="#000000">vApp: pujvary_benchmar_aloc</text>
</g>
<!-- com&#45;a&#45;testorg&#45;04&#45;&gt;pujvary_benchmar_aloc -->
<g id="edge12" class="edge">
<title>com-a-testorg-04-&gt;pujvary_benchmar_aloc</title>
<path fill="none" stroke="#000000" d="M1274.8226,-336.9551C1264.9186,-327.9177 1252.7698,-316.8319 1241.9841,-306.9899"/>
<polygon fill="#000000" stroke="#000000" points="1244.169,-304.2455 1234.423,-300.0904 1239.4506,-309.4163 1244.169,-304.2455"/>
</g>
<!-- benchmark_vm_aloc -->
<g id="node14" class="node">
<title>benchmark_vm_aloc</title>
<polygon fill="#add8e6" stroke="#add8e6" points="1226.4455,-169.8014 1062.7503,-169.8014 1062.7503,-110.9986 1226.4455,-110.9986 1226.4455,-169.8014"/>
<text text-anchor="middle" x="1144.5979" y="-153" font-family="Times,serif" font-size="14.00" fill="#000000">VM: benchmark_vm_aloc</text>
<text text-anchor="middle" x="1144.5979" y="-136.2" font-family="Times,serif" font-size="14.00" fill="#000000">RAM: 65536 MB</text>
<text text-anchor="middle" x="1144.5979" y="-119.4" font-family="Times,serif" font-size="14.00" fill="#000000">CPU: 4</text>
</g>
<!-- pujvary_benchmar_aloc&#45;&gt;benchmark_vm_aloc -->
<g id="edge13" class="edge">
<title>pujvary_benchmar_aloc-&gt;benchmark_vm_aloc</title>
<path fill="none" stroke="#000000" d="M1205.5899,-263.7782C1195.007,-242.3704 1177.1608,-206.27 1163.4988,-178.6338"/>
<polygon fill="#000000" stroke="#000000" points="1166.6118,-177.0329 1159.0426,-169.6195 1160.3367,-180.135 1166.6118,-177.0329"/>
</g>
<!-- none -->
<g id="node15" class="node">
<title>none</title>
<polygon fill="#add8e6" stroke="#add8e6" points="1596.1094,-41.4019 1467.0864,-41.4019 1467.0864,-.1981 1596.1094,-.1981 1596.1094,-41.4019"/>
<text text-anchor="middle" x="1531.5979" y="-25" font-family="Times,serif" font-size="14.00" fill="#000000">Network: none</text>
<text text-anchor="middle" x="1531.5979" y="-8.2" font-family="Times,serif" font-size="14.00" fill="#000000">Edge Gateway: neni</text>
</g>
<!-- benchmark_vm_aloc&#45;&gt;none -->
<g id="edge14" class="edge">
<title>benchmark_vm_aloc-&gt;none</title>
<path fill="none" stroke="#000000" d="M1226.5526,-115.4041C1239.6861,-109.343 1252.5666,-102.003 1263.5979,-93.2 1277.7536,-81.9037 1271.3392,-69.2701 1286.6519,-59.6 1314.3256,-42.1237 1395.5231,-31.7205 1456.909,-26.153"/>
<polygon fill="#000000" stroke="#000000" points="1457.3098,-29.6313 1466.9642,-25.2677 1456.6958,-22.6583 1457.3098,-29.6313"/>
<text text-anchor="middle" x="1358.5709" y="-80.6" font-family="Times,serif" font-size="14.00" fill="#000000">IP: 169.254.148.17</text>
<text text-anchor="middle" x="1358.5709" y="-63.8" font-family="Times,serif" font-size="14.00" fill="#000000">MAC: 00:50:56:06:6e:46</text>
</g>
<!-- sto&#45;3 -->
<g id="node18" class="node">
<title>sto-3</title>
<polygon fill="#add8e6" stroke="#add8e6" points="1513.6584,-246.2014 1405.5374,-246.2014 1405.5374,-187.3986 1513.6584,-187.3986 1513.6584,-246.2014"/>
<text text-anchor="middle" x="1459.5979" y="-229.4" font-family="Times,serif" font-size="14.00" fill="#000000">VM: sto-3</text>
<text text-anchor="middle" x="1459.5979" y="-212.6" font-family="Times,serif" font-size="14.00" fill="#000000">RAM: 4096 MB</text>
<text text-anchor="middle" x="1459.5979" y="-195.8" font-family="Times,serif" font-size="14.00" fill="#000000">CPU: 1</text>
</g>
<!-- com&#45;a&#45;testorg&#45;02&#45;&gt;sto&#45;3 -->
<g id="edge17" class="edge">
<title>com-a-testorg-02-&gt;sto-3</title>
<path fill="none" stroke="#000000" d="M1503.4993,-336.7423C1500.9556,-318.023 1495.8176,-288.2936 1486.5979,-264 1485.4946,-261.0929 1484.2283,-258.1525 1482.8591,-255.2355"/>
<polygon fill="#000000" stroke="#000000" points="1485.8544,-253.4034 1478.2097,-246.0679 1479.6114,-256.5697 1485.8544,-253.4034"/>
</g>
<!-- sto&#45;10 -->
<g id="node19" class="node">
<title>sto-10</title>
<polygon fill="#add8e6" stroke="#add8e6" points="1662.6584,-246.2014 1554.5374,-246.2014 1554.5374,-187.3986 1662.6584,-187.3986 1662.6584,-246.2014"/>
<text text-anchor="middle" x="1608.5979" y="-229.4" font-family="Times,serif" font-size="14.00" fill="#000000">VM: sto-10</text>
<text text-anchor="middle" x="1608.5979" y="-212.6" font-family="Times,serif" font-size="14.00" fill="#000000">RAM: 4096 MB</text>
<text text-anchor="middle" x="1608.5979" y="-195.8" font-family="Times,serif" font-size="14.00" fill="#000000">CPU: 1</text>
</g>
<!-- com&#45;a&#45;testorg&#45;02&#45;&gt;sto&#45;10 -->
<g id="edge20" class="edge">
<title>com-a-testorg-02-&gt;sto-10</title>
<path fill="none" stroke="#000000" d="M1519.0634,-336.9328C1534.63,-316.0463 1560.6716,-281.105 1580.6682,-254.2746"/>
<polygon fill="#000000" stroke="#000000" points="1583.4921,-256.3425 1586.6617,-246.2329 1577.8795,-252.1594 1583.4921,-256.3425"/>
</g>
<!-- JHA&#45;test&#45;inet (1) -->
<g id="node20" class="node">
<title>JHA-test-inet (1)</title>
<polygon fill="#add8e6" stroke="#add8e6" points="1477.3317,-300 1327.8641,-300 1327.8641,-264 1477.3317,-264 1477.3317,-300"/>
<text text-anchor="middle" x="1402.5979" y="-277.8" font-family="Times,serif" font-size="14.00" fill="#000000">vApp: JHA-test-inet (1)</text>
</g>
<!-- com&#45;a&#45;testorg&#45;02&#45;&gt;JHA&#45;test&#45;inet (1) -->
<g id="edge23" class="edge">
<title>com-a-testorg-02-&gt;JHA-test-inet (1)</title>
<path fill="none" stroke="#000000" d="M1480.1372,-336.9551C1467.0145,-327.6545 1450.8307,-316.1844 1436.6489,-306.1332"/>
<polygon fill="#000000" stroke="#000000" points="1438.3052,-303.0172 1428.1227,-300.0904 1434.2575,-308.7283 1438.3052,-303.0172"/>
</g>
<!-- migration tool test -->
<g id="node22" class="node">
<title>migration tool test</title>
<polygon fill="#add8e6" stroke="#add8e6" points="2262.2544,-300 2104.9414,-300 2104.9414,-264 2262.2544,-264 2262.2544,-300"/>
<text text-anchor="middle" x="2183.5979" y="-277.8" font-family="Times,serif" font-size="14.00" fill="#000000">vApp: migration tool test</text>
</g>
<!-- com&#45;a&#45;testorg&#45;02&#45;&gt;migration tool test -->
<g id="edge26" class="edge">
<title>com-a-testorg-02-&gt;migration tool test</title>
<path fill="none" stroke="#000000" d="M1580.6126,-338.3968C1583.6417,-337.8941 1586.6455,-337.4253 1589.5979,-337 1806.6414,-305.7323 1864.0211,-327.3103 2081.5979,-300 2085.9817,-299.4497 2090.4636,-298.8393 2094.9844,-298.1853"/>
<polygon fill="#000000" stroke="#000000" points="2095.5525,-301.6393 2104.9205,-296.6904 2094.511,-294.7172 2095.5525,-301.6393"/>
</g>
<!-- pujvary_benchmark -->
<g id="node25" class="node">
<title>pujvary_benchmark</title>
<polygon fill="#add8e6" stroke="#add8e6" points="2073.0565,-300 1906.1393,-300 1906.1393,-264 2073.0565,-264 2073.0565,-300"/>
<text text-anchor="middle" x="1989.5979" y="-277.8" font-family="Times,serif" font-size="14.00" fill="#000000">vApp: pujvary_benchmark</text>
</g>
<!-- com&#45;a&#45;testorg&#45;02&#45;&gt;pujvary_benchmark -->
<g id="edge29" class="edge">
<title>com-a-testorg-02-&gt;pujvary_benchmark</title>
<path fill="none" stroke="#000000" d="M1580.6496,-338.628C1583.6684,-338.0613 1586.66,-337.516 1589.5979,-337 1694.0429,-318.6551 1814.7296,-302.7852 1895.9895,-292.8713"/>
<polygon fill="#000000" stroke="#000000" points="1896.69,-296.3121 1906.1952,-291.6322 1895.8463,-289.3631 1896.69,-296.3121"/>
</g>
<!-- sto&#45;3&#45;&gt;none -->
<g id="edge19" class="edge">
<title>sto-3-&gt;none</title>
<path fill="none" stroke="#000000" d="M1453.21,-187.2056C1449.8542,-165.5147 1448.0494,-135.704 1456.8665,-111.2 1465.4757,-87.2737 1483.4676,-65.1796 1499.6401,-48.8233"/>
<polygon fill="#000000" stroke="#000000" points="1502.1968,-51.2185 1506.9025,-41.726 1497.3043,-46.2122 1502.1968,-51.2185"/>
<text text-anchor="middle" x="1528.9636" y="-144.6" font-family="Times,serif" font-size="14.00" fill="#000000">IP: 169.254.87.239</text>
<text text-anchor="middle" x="1528.9636" y="-127.8" font-family="Times,serif" font-size="14.00" fill="#000000">MAC: 00:50:56:06:07:75</text>
</g>
<!-- sto&#45;3&#45;&gt;sto&#45;3 -->
<g id="edge18" class="edge">
<title>sto-3-&gt;sto-3</title>
<path fill="none" stroke="#000000" d="M1513.815,-228.2661C1524.3772,-226.9345 1531.8777,-223.1125 1531.8777,-216.8 1531.8777,-212.7561 1528.7995,-209.7342 1523.8101,-207.7344"/>
<polygon fill="#000000" stroke="#000000" points="1524.3559,-204.2661 1513.815,-205.3339 1522.7212,-211.0725 1524.3559,-204.2661"/>
</g>
<!-- sto&#45;10&#45;&gt;none -->
<g id="edge22" class="edge">
<title>sto-10-&gt;none</title>
<path fill="none" stroke="#000000" d="M1610.3811,-187.1478C1610.6725,-165.4281 1608.9234,-135.6068 1599.5979,-111.2 1590.8031,-88.1823 1574.2949,-66.0121 1559.7468,-49.3878"/>
<polygon fill="#000000" stroke="#000000" points="1562.1021,-46.7734 1552.8048,-41.6928 1556.9045,-51.4623 1562.1021,-46.7734"/>
<text text-anchor="middle" x="1681.9636" y="-144.6" font-family="Times,serif" font-size="14.00" fill="#000000">IP: 169.254.232.122</text>
<text text-anchor="middle" x="1681.9636" y="-127.8" font-family="Times,serif" font-size="14.00" fill="#000000">MAC: 00:50:56:06:07:80</text>
</g>
<!-- sto&#45;10&#45;&gt;sto&#45;10 -->
<g id="edge21" class="edge">
<title>sto-10-&gt;sto-10</title>
<path fill="none" stroke="#000000" d="M1662.815,-228.2661C1673.3772,-226.9345 1680.8777,-223.1125 1680.8777,-216.8 1680.8777,-212.7561 1677.7995,-209.7342 1672.8101,-207.7344"/>
<polygon fill="#000000" stroke="#000000" points="1673.3559,-204.2661 1662.815,-205.3339 1671.7212,-211.0725 1673.3559,-204.2661"/>
</g>
<!-- JHA&#45;test&#45;inet&#45;vm&#45;01 -->
<g id="node21" class="node">
<title>JHA-test-inet-vm-01</title>
<polygon fill="#add8e6" stroke="#add8e6" points="1406.6673,-169.8014 1244.5285,-169.8014 1244.5285,-110.9986 1406.6673,-110.9986 1406.6673,-169.8014"/>
<text text-anchor="middle" x="1325.5979" y="-153" font-family="Times,serif" font-size="14.00" fill="#000000">VM: JHA-test-inet-vm-01</text>
<text text-anchor="middle" x="1325.5979" y="-136.2" font-family="Times,serif" font-size="14.00" fill="#000000">RAM: 8192 MB</text>
<text text-anchor="middle" x="1325.5979" y="-119.4" font-family="Times,serif" font-size="14.00" fill="#000000">CPU: 2</text>
</g>
<!-- JHA&#45;test&#45;inet (1)&#45;&gt;JHA&#45;test&#45;inet&#45;vm&#45;01 -->
<g id="edge24" class="edge">
<title>JHA-test-inet (1)-&gt;JHA-test-inet-vm-01</title>
<path fill="none" stroke="#000000" d="M1392.6891,-263.7782C1381.0479,-242.3704 1361.417,-206.27 1346.3889,-178.6338"/>
<polygon fill="#000000" stroke="#000000" points="1349.3391,-176.7326 1341.487,-169.6195 1343.1895,-180.0767 1349.3391,-176.7326"/>
</g>
<!-- JHA&#45;test&#45;inet&#45;vm&#45;01&#45;&gt;routed_network -->
<g id="edge25" class="edge">
<title>JHA-test-inet-vm-01-&gt;routed_network</title>
<path fill="none" stroke="#000000" d="M1244.326,-113.3995C1241.3893,-112.6256 1238.4733,-111.8891 1235.5979,-111.2 1185.7389,-99.2519 1165.0078,-120.5669 1121.6519,-93.2 1106.3372,-83.5331 1109.7083,-73.902 1098.5979,-59.6 1096.0017,-56.258 1093.2056,-52.8279 1090.3719,-49.4561"/>
<polygon fill="#000000" stroke="#000000" points="1092.9372,-47.071 1083.7678,-41.7631 1087.6258,-51.6305 1092.9372,-47.071"/>
<text text-anchor="middle" x="1193.5709" y="-80.6" font-family="Times,serif" font-size="14.00" fill="#000000">IP: 192.168.3.11</text>
<text text-anchor="middle" x="1193.5709" y="-63.8" font-family="Times,serif" font-size="14.00" fill="#000000">MAC: 00:50:56:06:78:e1</text>
</g>
<!-- dfw1 -->
<g id="node23" class="node">
<title>dfw1</title>
<polygon fill="#add8e6" stroke="#add8e6" points="2601.6584,-169.8014 2493.5374,-169.8014 2493.5374,-110.9986 2601.6584,-110.9986 2601.6584,-169.8014"/>
<text text-anchor="middle" x="2547.5979" y="-153" font-family="Times,serif" font-size="14.00" fill="#000000">VM: dfw1</text>
<text text-anchor="middle" x="2547.5979" y="-136.2" font-family="Times,serif" font-size="14.00" fill="#000000">RAM: 4096 MB</text>
<text text-anchor="middle" x="2547.5979" y="-119.4" font-family="Times,serif" font-size="14.00" fill="#000000">CPU: 2</text>
</g>
<!-- migration tool test&#45;&gt;dfw1 -->
<g id="edge27" class="edge">
<title>migration tool test-&gt;dfw1</title>
<path fill="none" stroke="#000000" d="M2230.0685,-263.9224C2294.5422,-238.8414 2411.3657,-193.3958 2483.9168,-165.1726"/>
<polygon fill="#000000" stroke="#000000" points="2485.3618,-168.3661 2493.4125,-161.4787 2482.8239,-161.8423 2485.3618,-168.3661"/>
</g>
<!-- JN_net_access -->
<g id="node24" class="node">
<title>JN_net_access</title>
<polygon fill="#add8e6" stroke="#add8e6" points="2883.8338,-41.4019 2641.362,-41.4019 2641.362,-.1981 2883.8338,-.1981 2883.8338,-41.4019"/>
<text text-anchor="middle" x="2762.5979" y="-25" font-family="Times,serif" font-size="14.00" fill="#000000">Network: JN_net_access</text>
<text text-anchor="middle" x="2762.5979" y="-8.2" font-family="Times,serif" font-size="14.00" fill="#000000">Edge Gateway: com-a-testorg-02-gw-01</text>
</g>
<!-- dfw1&#45;&gt;JN_net_access -->
<g id="edge28" class="edge">
<title>dfw1-&gt;JN_net_access</title>
<path fill="none" stroke="#000000" d="M2601.8505,-131.3357C2647.5494,-122.7853 2708.4506,-108.9539 2727.5979,-93.2 2740.5621,-82.5334 2749.0695,-65.9131 2754.4467,-51.2857"/>
<polygon fill="#000000" stroke="#000000" points="2757.8416,-52.1688 2757.6855,-41.5751 2751.2013,-49.954 2757.8416,-52.1688"/>
<text text-anchor="middle" x="2821.1782" y="-80.6" font-family="Times,serif" font-size="14.00" fill="#000000">IP: 140.160.1.2</text>
<text text-anchor="middle" x="2821.1782" y="-63.8" font-family="Times,serif" font-size="14.00" fill="#000000">MAC: 00:50:56:06:a3:e4</text>
</g>
<!-- benchmark_vm -->
<g id="node26" class="node">
<title>benchmark_vm</title>
<polygon fill="#add8e6" stroke="#add8e6" points="2056.1253,-169.8014 1923.0705,-169.8014 1923.0705,-110.9986 2056.1253,-110.9986 2056.1253,-169.8014"/>
<text text-anchor="middle" x="1989.5979" y="-153" font-family="Times,serif" font-size="14.00" fill="#000000">VM: benchmark_vm</text>
<text text-anchor="middle" x="1989.5979" y="-136.2" font-family="Times,serif" font-size="14.00" fill="#000000">RAM: 8192 MB</text>
<text text-anchor="middle" x="1989.5979" y="-119.4" font-family="Times,serif" font-size="14.00" fill="#000000">CPU: 8</text>
</g>
<!-- pujvary_benchmark&#45;&gt;benchmark_vm -->
<g id="edge30" class="edge">
<title>pujvary_benchmark-&gt;benchmark_vm</title>
<path fill="none" stroke="#000000" d="M1989.5979,-263.7782C1989.5979,-242.6497 1989.5979,-207.2093 1989.5979,-179.7195"/>
<polygon fill="#000000" stroke="#000000" points="1993.098,-179.6195 1989.5979,-169.6195 1986.098,-179.6196 1993.098,-179.6195"/>
</g>
<!-- pujvary&#45;linux -->
<g id="node28" class="node">
<title>pujvary-linux</title>
<polygon fill="#add8e6" stroke="#add8e6" points="1904.7474,-169.8014 1782.4484,-169.8014 1782.4484,-110.9986 1904.7474,-110.9986 1904.7474,-169.8014"/>
<text text-anchor="middle" x="1843.5979" y="-153" font-family="Times,serif" font-size="14.00" fill="#000000">VM: pujvary-linux</text>
<text text-anchor="middle" x="1843.5979" y="-136.2" font-family="Times,serif" font-size="14.00" fill="#000000">RAM: 4096 MB</text>
<text text-anchor="middle" x="1843.5979" y="-119.4" font-family="Times,serif" font-size="14.00" fill="#000000">CPU: 1</text>
</g>
<!-- pujvary_benchmark&#45;&gt;pujvary&#45;linux -->
<g id="edge32" class="edge">
<title>pujvary_benchmark-&gt;pujvary-linux</title>
<path fill="none" stroke="#000000" d="M1970.8098,-263.7782C1948.257,-241.905 1909.8892,-204.6935 1881.1741,-176.8437"/>
<polygon fill="#000000" stroke="#000000" points="1883.3405,-174.0692 1873.7254,-169.6195 1878.4671,-179.0941 1883.3405,-174.0692"/>
</g>
<!-- benchmark_vm_3 -->
<g id="node29" class="node">
<title>benchmark_vm_3</title>
<polygon fill="#add8e6" stroke="#add8e6" points="2221.1253,-169.8014 2074.0705,-169.8014 2074.0705,-110.9986 2221.1253,-110.9986 2221.1253,-169.8014"/>
<text text-anchor="middle" x="2147.5979" y="-153" font-family="Times,serif" font-size="14.00" fill="#000000">VM: benchmark_vm_3</text>
<text text-anchor="middle" x="2147.5979" y="-136.2" font-family="Times,serif" font-size="14.00" fill="#000000">RAM: 8192 MB</text>
<text text-anchor="middle" x="2147.5979" y="-119.4" font-family="Times,serif" font-size="14.00" fill="#000000">CPU: 8</text>
</g>
<!-- pujvary_benchmark&#45;&gt;benchmark_vm_3 -->
<g id="edge34" class="edge">
<title>pujvary_benchmark-&gt;benchmark_vm_3</title>
<path fill="none" stroke="#000000" d="M2009.9302,-263.7782C2034.4405,-241.812 2076.2117,-204.3765 2107.3294,-176.4887"/>
<polygon fill="#000000" stroke="#000000" points="2109.8831,-178.9 2114.9942,-169.6195 2105.2113,-173.6871 2109.8831,-178.9"/>
</g>
<!-- benchmark&#45;vm&#45;2 -->
<g id="node31" class="node">
<title>benchmark-vm-2</title>
<polygon fill="#add8e6" stroke="#add8e6" points="2381.9469,-169.8014 2239.2489,-169.8014 2239.2489,-110.9986 2381.9469,-110.9986 2381.9469,-169.8014"/>
<text text-anchor="middle" x="2310.5979" y="-153" font-family="Times,serif" font-size="14.00" fill="#000000">VM: benchmark-vm-2</text>
<text text-anchor="middle" x="2310.5979" y="-136.2" font-family="Times,serif" font-size="14.00" fill="#000000">RAM: 8192 MB</text>
<text text-anchor="middle" x="2310.5979" y="-119.4" font-family="Times,serif" font-size="14.00" fill="#000000">CPU: 8</text>
</g>
<!-- pujvary_benchmark&#45;&gt;benchmark&#45;vm&#45;2 -->
<g id="edge37" class="edge">
<title>pujvary_benchmark-&gt;benchmark-vm-2</title>
<path fill="none" stroke="#000000" d="M2033.4413,-263.9041C2046.9884,-258.2437 2061.9373,-251.9273 2075.5979,-246 2130.0126,-222.3897 2191.1128,-194.9032 2237.37,-173.8923"/>
<polygon fill="#000000" stroke="#000000" points="2239.0572,-176.97 2246.7121,-169.6453 2236.1602,-170.5976 2239.0572,-176.97"/>
</g>
<!-- routed_network_2 -->
<g id="node27" class="node">
<title>routed_network_2</title>
<polygon fill="#add8e6" stroke="#add8e6" points="2226.8338,-41.4019 1984.362,-41.4019 1984.362,-.1981 2226.8338,-.1981 2226.8338,-41.4019"/>
<text text-anchor="middle" x="2105.5979" y="-25" font-family="Times,serif" font-size="14.00" fill="#000000">Network: routed_network_2</text>
<text text-anchor="middle" x="2105.5979" y="-8.2" font-family="Times,serif" font-size="14.00" fill="#000000">Edge Gateway: com-a-testorg-02-gw-01</text>
</g>
<!-- benchmark_vm&#45;&gt;routed_network_2 -->
<g id="edge31" class="edge">
<title>benchmark_vm-&gt;routed_network_2</title>
<path fill="none" stroke="#000000" d="M1962.586,-110.826C1951.1323,-94.6293 1942.851,-74.8178 1954.6519,-59.6 1959.0021,-53.9901 1967.9108,-49.0499 1979.3263,-44.7404"/>
<polygon fill="#000000" stroke="#000000" points="1980.6626,-47.9821 1988.9797,-41.4188 1978.385,-41.363 1980.6626,-47.9821"/>
<text text-anchor="middle" x="2026.5709" y="-80.6" font-family="Times,serif" font-size="14.00" fill="#000000">IP: 192.168.4.6</text>
<text text-anchor="middle" x="2026.5709" y="-63.8" font-family="Times,serif" font-size="14.00" fill="#000000">MAC: 00:50:56:06:6e:45</text>
</g>
<!-- pujvary&#45;linux&#45;&gt;none -->
<g id="edge33" class="edge">
<title>pujvary-linux-&gt;none</title>
<path fill="none" stroke="#000000" d="M1782.2053,-116.491C1777.6008,-114.6999 1773.026,-112.921 1768.5979,-111.2 1709.5004,-88.2317 1694.8569,-82.1484 1635.5979,-59.6 1623.111,-54.8487 1609.7599,-49.8252 1596.9287,-45.0254"/>
<polygon fill="#000000" stroke="#000000" points="1597.8333,-41.6272 1587.2407,-41.4069 1595.3839,-48.1847 1597.8333,-41.6272"/>
<text text-anchor="middle" x="1791.5709" y="-80.6" font-family="Times,serif" font-size="14.00" fill="#000000">IP: N/A</text>
<text text-anchor="middle" x="1791.5709" y="-63.8" font-family="Times,serif" font-size="14.00" fill="#000000">MAC: 00:50:56:06:a6:74</text>
</g>
<!-- benchmark_vm_3&#45;&gt;routed_network_2 -->
<g id="edge36" class="edge">
<title>benchmark_vm_3-&gt;routed_network_2</title>
<path fill="none" stroke="#000000" d="M2116.6494,-111.0157C2112.4925,-105.5146 2108.8396,-99.4984 2106.4373,-93.2 2101.4534,-80.1328 2100.643,-64.7488 2101.3198,-51.53"/>
<polygon fill="#000000" stroke="#000000" points="2104.8151,-51.7275 2102.1301,-41.4785 2097.8377,-51.1649 2104.8151,-51.7275"/>
<text text-anchor="middle" x="2176.1782" y="-80.6" font-family="Times,serif" font-size="14.00" fill="#000000">IP: 192.168.4.5</text>
<text text-anchor="middle" x="2176.1782" y="-63.8" font-family="Times,serif" font-size="14.00" fill="#000000">MAC: 00:50:56:06:a6:0e</text>
</g>
<!-- benchmark&#45;vlan&#45;4000 -->
<g id="node30" class="node">
<title>benchmark-vlan-4000</title>
<polygon fill="#add8e6" stroke="#add8e6" points="2576.5889,-41.4019 2380.6069,-41.4019 2380.6069,-.1981 2576.5889,-.1981 2576.5889,-41.4019"/>
<text text-anchor="middle" x="2478.5979" y="-25" font-family="Times,serif" font-size="14.00" fill="#000000">Network: benchmark-vlan-4000</text>
<text text-anchor="middle" x="2478.5979" y="-8.2" font-family="Times,serif" font-size="14.00" fill="#000000">Edge Gateway: neni</text>
</g>
<!-- benchmark_vm_3&#45;&gt;benchmark&#45;vlan&#45;4000 -->
<g id="edge35" class="edge">
<title>benchmark_vm_3-&gt;benchmark-vlan-4000</title>
<path fill="none" stroke="#000000" d="M2221.5541,-113.3989C2224.593,-112.6018 2227.6158,-111.8637 2230.5979,-111.2 2269.8375,-102.4674 2376.9132,-115.1394 2410.5979,-93.2 2424.9831,-83.8307 2418.4852,-72.6393 2429.6519,-59.6 2433.0474,-55.6351 2436.8967,-51.7893 2440.9091,-48.158"/>
<polygon fill="#000000" stroke="#000000" points="2443.4167,-50.6192 2448.7497,-41.4644 2438.8717,-45.2954 2443.4167,-50.6192"/>
<text text-anchor="middle" x="2500.5709" y="-80.6" font-family="Times,serif" font-size="14.00" fill="#000000">IP: 192.168.100.6</text>
<text text-anchor="middle" x="2500.5709" y="-63.8" font-family="Times,serif" font-size="14.00" fill="#000000">MAC: 00:50:56:06:a6:0d</text>
</g>
<!-- benchmark&#45;vm&#45;2&#45;&gt;routed_network_2 -->
<g id="edge39" class="edge">
<title>benchmark-vm-2-&gt;routed_network_2</title>
<path fill="none" stroke="#000000" d="M2285.2524,-111.0217C2280.4217,-105.1926 2275.4768,-99.0618 2270.9913,-93.2 2259.9333,-78.7492 2262.4636,-70.0935 2247.5979,-59.6 2239.8499,-54.1308 2231.3644,-49.4319 2222.5179,-45.3949"/>
<polygon fill="#000000" stroke="#000000" points="2223.7561,-42.1181 2213.184,-41.423 2221.0151,-48.5592 2223.7561,-42.1181"/>
<text text-anchor="middle" x="2340.4012" y="-80.6" font-family="Times,serif" font-size="14.00" fill="#000000">IP: 192.168.4.7</text>
<text text-anchor="middle" x="2340.4012" y="-63.8" font-family="Times,serif" font-size="14.00" fill="#000000">MAC: 00:50:56:06:a6:0f</text>
</g>
<!-- benchmark&#45;vm&#45;2&#45;&gt;benchmark&#45;vlan&#45;4000 -->
<g id="edge38" class="edge">
<title>benchmark-vm-2-&gt;benchmark-vlan-4000</title>
<path fill="none" stroke="#000000" d="M2382.1042,-128.2287C2460.0504,-114.8792 2574.0202,-95.0836 2575.5979,-93.2 2585.187,-81.7521 2583.97,-71.9658 2575.5979,-59.6 2572.5617,-55.1154 2568.9141,-51.1491 2564.8391,-47.6412"/>
<polygon fill="#000000" stroke="#000000" points="2566.6338,-44.6137 2556.524,-41.4445 2562.4509,-50.2265 2566.6338,-44.6137"/>
<text text-anchor="middle" x="2652.5709" y="-80.6" font-family="Times,serif" font-size="14.00" fill="#000000">IP: 192.168.100.5</text>
<text text-anchor="middle" x="2652.5709" y="-63.8" font-family="Times,serif" font-size="14.00" fill="#000000">MAC: 00:50:56:06:a6:09</text>
</g>
</g>
</svg>